HIERARCHY
ROOT newVegas:Hips
{
	OFFSET 0.000000 96.479958 0.000000
	CHANNELS 6 Xposition Yposition Zposition Xrotation Yrotation Zrotation
	JOINT newVegas:Pelvis
	{
		OFFSET 0.000000 0.000000 0.000000
		CHANNELS 3 Xrotation Yrotation Zrotation
		JOINT newVegas:LeftUpLeg
		{
			OFFSET 18.735201 -5.666702 -4.541200
			CHANNELS 3 Xrotation Yrotation Zrotation
			JOINT newVegas:LeftLeg
			{
				OFFSET -0.021200 -31.938179 0.493100
				CHANNELS 3 Xrotation Yrotation Zrotation
				JOINT newVegas:LeftFoot
				{
					OFFSET 0.021200 -31.938179 -4.336299
					CHANNELS 3 Xrotation Yrotation Zrotation
					JOINT newVegas:LeftToeBase
					{
						OFFSET 0.943001 -26.722000 15.023500
						CHANNELS 3 Xrotation Yrotation Zrotation
						End Site
						{
							OFFSET 0.000000 30.670183 0.000000
						}
					}
				}
				JOINT newVegas:Left_PantLeg
				{
					OFFSET 0.663870 -9.044666 -1.108900
					CHANNELS 3 Xrotation Yrotation Zrotation
					End Site
					{
						OFFSET 1.415995 20.635357 0.000000
					}
				}
			}
		}
		JOINT newVegas:RightUpLeg
		{
			OFFSET -18.735201 -5.666702 -4.541200
			CHANNELS 3 Xrotation Yrotation Zrotation
			JOINT newVegas:RightLeg
			{
				OFFSET 0.018946 -31.938133 0.493100
				CHANNELS 3 Xrotation Yrotation Zrotation
				JOINT newVegas:RightFoot
				{
					OFFSET -0.018946 -31.938126 -4.336299
					CHANNELS 3 Xrotation Yrotation Zrotation
					JOINT newVegas:RightToeBase
					{
						OFFSET -0.943001 -26.722004 15.023500
						CHANNELS 3 Xrotation Yrotation Zrotation
						End Site
						{
							OFFSET 0.000000 30.670187 0.000000
						}
					}
				}
				JOINT newVegas:Right_PantLeg
				{
					OFFSET -0.661674 -9.044716 -1.108900
					CHANNELS 3 Xrotation Yrotation Zrotation
					End Site
					{
						OFFSET -1.415958 20.635269 0.000000
					}
				}
			}
		}
	}
	JOINT newVegas:Spine
	{
		OFFSET 0.000000 10.199997 -0.299500
		CHANNELS 3 Xrotation Yrotation Zrotation
		JOINT newVegas:Spine1
		{
			OFFSET 0.000000 11.900002 -1.516600
			CHANNELS 3 Xrotation Yrotation Zrotation
			JOINT newVegas:Spine2
			{
				OFFSET 0.000000 13.600006 -2.842500
				CHANNELS 3 Xrotation Yrotation Zrotation
				JOINT newVegas:Neck
				{
					OFFSET 0.000000 9.624100 -2.890100
					CHANNELS 3 Xrotation Yrotation Zrotation
					JOINT newVegas:Head
					{
						OFFSET 0.000000 14.068802 -1.351900
						CHANNELS 3 Xrotation Yrotation Zrotation
						JOINT newVegas:Hair_Back
						{
							OFFSET 0.000000 3.231903 -17.524799
							CHANNELS 3 Xrotation Yrotation Zrotation
							End Site
							{
								OFFSET 0.000000 19.849884 0.000000
							}
						}
						JOINT newVegas:Hair_Front
						{
							OFFSET 0.000000 31.260406 4.573800
							CHANNELS 3 Xrotation Yrotation Zrotation
							JOINT newVegas:Hair_Front1
							{
								OFFSET 0.000000 2.284103 11.993300
								CHANNELS 3 Xrotation Yrotation Zrotation
								JOINT newVegas:Hair_Front2
								{
									OFFSET 0.000000 2.284103 11.993300
									CHANNELS 3 Xrotation Yrotation Zrotation
									End Site
									{
										OFFSET 0.000000 12.208862 0.000000
									}
								}
							}
						}
						JOINT newVegas:Jowel
						{
							OFFSET 0.000000 -7.458206 6.864100
							CHANNELS 3 Xrotation Yrotation Zrotation
							End Site
							{
								OFFSET 0.000000 19.849884 0.000000
							}
						}
					}
				}
				JOINT newVegas:LeftShoulder
				{
					OFFSET 15.263000 10.923401 -0.547700
					CHANNELS 3 Xrotation Yrotation Zrotation
					JOINT newVegas:LeftArm
					{
						OFFSET 25.438599 -2.830597 -13.032500
						CHANNELS 3 Xrotation Yrotation Zrotation
						JOINT newVegas:LeftForeArm
						{
							OFFSET 29.960503 0.000000 0.000000
							CHANNELS 3 Xrotation Yrotation Zrotation
							JOINT newVegas:LeftHand
							{
								OFFSET 27.849251 0.000000 0.000000
								CHANNELS 3 Xrotation Yrotation Zrotation
								JOINT newVegas:LeftHandThumb1
								{
									OFFSET 4.487587 -3.305161 6.305391
									CHANNELS 3 Xrotation Yrotation Zrotation
									JOINT newVegas:LeftHandThumb2
									{
										OFFSET 5.480453 -3.164139 3.164143
										CHANNELS 3 Xrotation Yrotation Zrotation
										JOINT newVegas:LeftHandThumb3
										{
											OFFSET 5.159721 -2.978973 2.978967
											CHANNELS 3 Xrotation Yrotation Zrotation
											End Site
											{
												OFFSET 2.494507 5.926697 1.738678
											}
										}
									}
								}
								JOINT newVegas:LeftHandIndex1
								{
									OFFSET 18.578728 -0.527832 5.208049
									CHANNELS 3 Xrotation Yrotation Zrotation
									JOINT newVegas:LeftHandIndex2
									{
										OFFSET 3.192009 0.000000 0.000000
										CHANNELS 3 Xrotation Yrotation Zrotation
										JOINT newVegas:LeftHandIndex3
										{
											OFFSET 3.835129 0.000000 0.000000
											CHANNELS 3 Xrotation Yrotation Zrotation
											End Site
											{
												OFFSET -0.034599 3.816971 0.371180
											}
										}
									}
								}
								JOINT newVegas:LeftHandMiddle1
								{
									OFFSET 18.476105 0.000000 0.000000
									CHANNELS 3 Xrotation Yrotation Zrotation
									JOINT newVegas:LeftHandMiddle2
									{
										OFFSET 3.324875 0.000000 0.000000
										CHANNELS 3 Xrotation Yrotation Zrotation
										JOINT newVegas:LeftHandMiddle3
										{
											OFFSET 4.596550 0.000000 0.000000
											CHANNELS 3 Xrotation Yrotation Zrotation
											End Site
											{
												OFFSET 0.057701 4.578827 0.399218
											}
										}
									}
								}
								JOINT newVegas:LeftHandRing1
								{
									OFFSET 17.732719 0.121887 -4.201567
									CHANNELS 3 Xrotation Yrotation Zrotation
									JOINT newVegas:LeftHandRing2
									{
										OFFSET 2.733170 0.000000 0.000000
										CHANNELS 3 Xrotation Yrotation Zrotation
										JOINT newVegas:LeftHandRing3
										{
											OFFSET 3.178268 0.000000 0.000000
											CHANNELS 3 Xrotation Yrotation Zrotation
											End Site
											{
												OFFSET 0.119102 3.170624 0.185394
											}
										}
									}
								}
								JOINT newVegas:LeftHandPinky1
								{
									OFFSET 15.989624 -0.606689 -7.535461
									CHANNELS 3 Xrotation Yrotation Zrotation
									JOINT newVegas:LeftHandPinky2
									{
										OFFSET 2.538986 0.000000 0.000000
										CHANNELS 3 Xrotation Yrotation Zrotation
										JOINT newVegas:LeftHandPinky3
										{
											OFFSET 2.593102 0.000000 0.000000
											CHANNELS 3 Xrotation Yrotation Zrotation
											End Site
											{
												OFFSET -0.150902 2.584198 0.152708
											}
										}
									}
								}
							}
							JOINT newVegas:Left_Sleeve
							{
								OFFSET 0.267448 -0.649796 0.577675
								CHANNELS 3 Xrotation Yrotation Zrotation
								End Site
								{
									OFFSET 0.000000 15.991241 0.000000
								}
							}
							JOINT newVegas:Left_CapeC
							{
								OFFSET 15.715958 -8.608795 -6.935905
								CHANNELS 3 Xrotation Yrotation Zrotation
								JOINT newVegas:Left_CapeC1
								{
									OFFSET 0.000000 -8.688499 0.000000
									CHANNELS 3 Xrotation Yrotation Zrotation
									End Site
									{
										OFFSET 0.000000 8.688499 0.000000
									}
								}
							}
						}
						JOINT newVegas:Left_CapeB
						{
							OFFSET 26.118385 -8.608795 -7.079235
							CHANNELS 3 Xrotation Yrotation Zrotation
							JOINT newVegas:Left_CapeB1
							{
								OFFSET 0.000000 -8.688499 0.000000
								CHANNELS 3 Xrotation Yrotation Zrotation
								End Site
								{
									OFFSET 0.000000 8.688499 0.000000
								}
							}
						}
						JOINT newVegas:Left_CapeA
						{
							OFFSET 5.115639 -8.608795 -10.395809
							CHANNELS 3 Xrotation Yrotation Zrotation
							JOINT newVegas:Left_CapeA1
							{
								OFFSET 0.000000 -8.688499 0.000000
								CHANNELS 3 Xrotation Yrotation Zrotation
								End Site
								{
									OFFSET 0.000000 8.688499 0.000000
								}
							}
						}
					}
				}
				JOINT newVegas:RightShoulder
				{
					OFFSET -15.263000 10.923401 -0.547700
					CHANNELS 3 Xrotation Yrotation Zrotation
					JOINT newVegas:RightArm
					{
						OFFSET -25.438599 -2.830597 -13.032500
						CHANNELS 3 Xrotation Yrotation Zrotation
						JOINT newVegas:RightForeArm
						{
							OFFSET -29.960503 0.000000 0.000000
							CHANNELS 3 Xrotation Yrotation Zrotation
							JOINT newVegas:RightHand
							{
								OFFSET -27.849251 0.000000 0.000000
								CHANNELS 3 Xrotation Yrotation Zrotation
								JOINT newVegas:RightHandThumb1
								{
									OFFSET -4.487587 -3.305161 6.305391
									CHANNELS 3 Xrotation Yrotation Zrotation
									JOINT newVegas:RightHandThumb2
									{
										OFFSET -5.480453 -3.164139 3.164143
										CHANNELS 3 Xrotation Yrotation Zrotation
										JOINT newVegas:RightHandThumb3
										{
											OFFSET -5.159721 -2.978973 2.978967
											CHANNELS 3 Xrotation Yrotation Zrotation
											End Site
											{
												OFFSET -2.494507 5.926697 1.738678
											}
										}
									}
								}
								JOINT newVegas:RightHandIndex1
								{
									OFFSET -18.578728 -0.527832 5.208049
									CHANNELS 3 Xrotation Yrotation Zrotation
									JOINT newVegas:RightHandIndex2
									{
										OFFSET -3.192009 0.000000 0.000000
										CHANNELS 3 Xrotation Yrotation Zrotation
										JOINT newVegas:RightHandIndex3
										{
											OFFSET -3.835129 0.000000 0.000000
											CHANNELS 3 Xrotation Yrotation Zrotation
											End Site
											{
												OFFSET 0.034599 3.816971 0.371180
											}
										}
									}
								}
								JOINT newVegas:RightHandMiddle1
								{
									OFFSET -18.476105 0.000000 0.000000
									CHANNELS 3 Xrotation Yrotation Zrotation
									JOINT newVegas:RightHandMiddle2
									{
										OFFSET -3.324875 0.000000 0.000000
										CHANNELS 3 Xrotation Yrotation Zrotation
										JOINT newVegas:RightHandMiddle3
										{
											OFFSET -4.596550 0.000000 0.000000
											CHANNELS 3 Xrotation Yrotation Zrotation
											End Site
											{
												OFFSET -0.057701 4.578827 0.399218
											}
										}
									}
								}
								JOINT newVegas:RightHandRing1
								{
									OFFSET -17.732719 0.121887 -4.201567
									CHANNELS 3 Xrotation Yrotation Zrotation
									JOINT newVegas:RightHandRing2
									{
										OFFSET -2.733170 0.000000 0.000000
										CHANNELS 3 Xrotation Yrotation Zrotation
										JOINT newVegas:RightHandRing3
										{
											OFFSET -3.178268 0.000000 0.000000
											CHANNELS 3 Xrotation Yrotation Zrotation
											End Site
											{
												OFFSET -0.119102 3.170624 0.185394
											}
										}
									}
								}
								JOINT newVegas:RightHandPinky1
								{
									OFFSET -15.989624 -0.606689 -7.535461
									CHANNELS 3 Xrotation Yrotation Zrotation
									JOINT newVegas:RightHandPinky2
									{
										OFFSET -2.538986 0.000000 0.000000
										CHANNELS 3 Xrotation Yrotation Zrotation
										JOINT newVegas:RightHandPinky3
										{
											OFFSET -2.593102 0.000000 0.000000
											CHANNELS 3 Xrotation Yrotation Zrotation
											End Site
											{
												OFFSET 0.150902 2.584198 0.152708
											}
										}
									}
								}
							}
							JOINT newVegas:Right_CapeC
							{
								OFFSET -15.715958 -8.608795 -6.935905
								CHANNELS 3 Xrotation Yrotation Zrotation
								JOINT newVegas:Right_CapeC1
								{
									OFFSET 0.000000 -8.688499 0.000000
									CHANNELS 3 Xrotation Yrotation Zrotation
									End Site
									{
										OFFSET 0.000000 8.688499 0.000000
									}
								}
							}
							JOINT newVegas:Right_Sleeve
							{
								OFFSET -0.267448 -0.649994 0.577675
								CHANNELS 3 Xrotation Yrotation Zrotation
								End Site
								{
									OFFSET 0.000000 15.991302 0.000000
								}
							}
						}
						JOINT newVegas:Right_CapeA
						{
							OFFSET -5.115540 -8.608795 -10.395824
							CHANNELS 3 Xrotation Yrotation Zrotation
							JOINT newVegas:Right_CapeA1
							{
								OFFSET 0.000000 -8.688499 0.000000
								CHANNELS 3 Xrotation Yrotation Zrotation
								End Site
								{
									OFFSET 0.000000 8.688499 0.000000
								}
							}
						}
						JOINT newVegas:Right_CapeB
						{
							OFFSET -26.118187 -8.608795 -7.079266
							CHANNELS 3 Xrotation Yrotation Zrotation
							JOINT newVegas:Right_CapeB1
							{
								OFFSET 0.000000 -8.688499 0.000000
								CHANNELS 3 Xrotation Yrotation Zrotation
								End Site
								{
									OFFSET 0.000000 8.688499 0.000000
								}
							}
						}
					}
				}
				JOINT newVegas:Left_Collar
				{
					OFFSET 18.625099 8.655502 8.828100
					CHANNELS 3 Xrotation Yrotation Zrotation
					JOINT newVegas:Left_Collar1
					{
						OFFSET 14.783401 10.540405 -1.259500
						CHANNELS 3 Xrotation Yrotation Zrotation
						End Site
						{
							OFFSET 0.000000 18.199875 0.000000
						}
					}
				}
				JOINT newVegas:Collar_Back
				{
					OFFSET 0.000000 15.630707 -20.132601
					CHANNELS 3 Xrotation Yrotation Zrotation
					End Site
					{
						OFFSET 0.000000 22.523010 0.000000
					}
				}
				JOINT newVegas:Left_Peck
				{
					OFFSET 17.239599 -5.132599 25.482599
					CHANNELS 3 Xrotation Yrotation Zrotation
					End Site
					{
						OFFSET 0.000000 22.523010 0.000000
					}
				}
				JOINT newVegas:Right_Peck
				{
					OFFSET -17.239599 -5.132202 25.482599
					CHANNELS 3 Xrotation Yrotation Zrotation
					End Site
					{
						OFFSET 0.000000 22.523010 0.000000
					}
				}
				JOINT newVegas:Right_Collar
				{
					OFFSET -18.625099 8.655792 8.828100
					CHANNELS 3 Xrotation Yrotation Zrotation
					JOINT newVegas:Right_Collar1
					{
						OFFSET -14.783401 10.539993 -1.259500
						CHANNELS 3 Xrotation Yrotation Zrotation
						End Site
						{
							OFFSET 0.000000 18.199631 0.000000
						}
					}
				}
			}
		}
		JOINT newVegas:Belly
		{
			OFFSET 0.000000 -6.540398 9.014299
			CHANNELS 3 Xrotation Yrotation Zrotation
			End Site
			{
				OFFSET 0.000000 11.566666 0.000000
			}
		}
	}
	JOINT newVegas:ElvisFacialAnim_Joint
	{
		OFFSET 1.000000 -95.330101 -8.825800
		CHANNELS 3 Xrotation Yrotation Zrotation
		End Site
		{
			OFFSET 0.000000 35.315800 0.000000
		}
	}
}
MOTION
Frames: 4
Frame Time: 0.033333
-1.127007 51.515038 1.375946 30.073552 -21.581835 8.521369 0.000001 0.000001 0.000001 -107.340255 -18.963105 24.786729 130.491925 -0.382618 -2.502246 -43.314157 -0.329394 -16.542988 0.000000 -0.000000 0.000000 0.000001 -0.000001 -0.000001 -110.339971 15.743137 -5.057299 133.293491 5.796751 -0.472947 -34.397908 -3.437023 9.452978 -0.000000 0.000002 -0.000000 -0.000002 -0.000003 0.000000 12.864588 3.500373 0.010935 7.157524 0.425072 -2.615698 7.077774 1.644212 4.137988 -0.489037 1.663405 -3.466454 -0.489050 1.663414 -3.466464 0.000001 0.000000 -0.000000 -0.488955 1.663409 -3.466467 -0.489087 1.663416 -3.466462 0.000002 -0.000000 0.000000 0.000001 0.000000 -0.000000 8.670961 -7.829325 14.949028 -86.305785 -12.324838 -32.652327 4.990653 -43.314321 8.165971 -58.781585 -1.451750 7.666623 17.551631 -5.699260 -12.932255 10.850462 26.127685 8.644834 0.000004 -0.000001 -0.000003 13.980940 1.201541 -55.004319 0.381504 1.169566 -65.441887 0.000001 -0.000003 -0.000001 7.504710 1.174344 -63.778490 1.807953 1.478126 -64.568060 -0.000000 -0.000000 0.000002 8.574680 2.177935 -75.148951 -0.201025 0.998820 -57.855152 0.000000 -0.000001 0.000002 10.030107 13.637028 -84.750230 0.869812 0.055039 -64.595141 0.000000 -0.000003 0.000002 -0.000001 0.000000 -0.000000 -0.000001 0.000000 -0.000000 -0.000002 0.000000 -0.000000 0.000000 -0.000003 -0.000001 0.000000 -0.000004 -0.000001 0.000000 -0.000003 -0.000001 0.000000 -0.000004 -0.000002 8.626054 12.711855 14.288156 -9.159103 -2.823235 38.633814 3.786348 23.910978 -1.776196 0.371007 7.531206 -7.147326 15.793627 -2.732187 -17.204782 -2.199534 -31.115794 7.357297 -0.000000 0.000001 0.000001 2.383699 -3.657668 8.486346 -2.143388 -2.476179 18.675479 -0.000000 -0.000002 -0.000000 -1.997198 -5.685896 13.660108 0.282620 -5.093140 26.989996 0.000000 -0.000001 -0.000001 -3.252410 -8.546057 11.770036 4.005188 -4.041429 33.261590 -0.000001 0.000001 0.000000 -6.473096 -11.329354 23.262731 10.720253 -2.557814 34.823839 0.000001 0.000003 0.000001 0.000001 0.000004 -0.000002 0.000001 0.000002 -0.000001 0.000001 0.000003 -0.000002 -0.000000 -0.000003 0.000001 -0.000000 -0.000002 0.000001 -0.000000 -0.000003 0.000001 -0.000000 -0.000002 0.000001 -0.000003 0.000000 0.000000 -0.000003 0.000000 0.000000 -0.000003 0.000000 0.000000 -0.000003 0.000000 0.000000 -0.000003 0.000000 0.000000 -0.000003 0.000000 0.000000 -0.000003 0.000000 0.000000 0.000003 -0.000000 0.000000 0.000001 0.000001 0.000001 
-1.209682 51.495872 1.394646 30.123364 -21.344164 8.611923 0.000001 0.000000 0.000000 -107.411289 -18.926804 24.707231 130.352125 -0.526989 -2.551885 -43.201005 -0.356088 -16.534295 -0.000000 -0.000000 -0.000000 -0.000002 -0.000001 -0.000001 -110.517105 15.803586 -5.147342 133.500774 5.711773 -0.465689 -34.334651 -3.392962 9.375698 -0.000001 -0.000001 0.000000 0.000001 0.000001 0.000000 12.703785 3.497366 -0.041726 7.158608 0.412257 -2.700234 7.079361 1.631566 4.053578 -0.436913 1.808194 -3.557800 -0.436917 1.808190 -3.557797 -0.000000 0.000000 -0.000000 -0.436888 1.808200 -3.557799 -0.436959 1.808184 -3.557797 -0.000001 0.000000 -0.000000 -0.000000 0.000000 -0.000000 8.670040 -7.829175 14.944128 -86.250966 -12.334728 -32.629241 4.906826 -43.304916 8.092998 -58.784371 -1.409419 7.681113 17.551629 -5.699257 -12.932260 10.850455 26.127685 8.644831 0.000002 -0.000001 -0.000001 13.980938 1.201540 -55.004313 0.381506 1.169566 -65.441887 -0.000001 -0.000002 -0.000000 7.504710 1.174344 -63.778496 1.807951 1.478126 -64.568060 -0.000000 0.000000 -0.000006 8.574680 2.177935 -75.148951 -0.201027 0.998820 -57.855152 -0.000000 0.000001 0.000001 10.030105 13.637028 -84.750230 0.869814 0.055033 -64.595141 0.000000 -0.000003 -0.000001 0.000001 0.000000 -0.000000 0.000001 0.000000 -0.000000 0.000000 -0.000000 0.000000 -0.000002 -0.000001 -0.000000 -0.000002 -0.000002 -0.000000 -0.000002 -0.000001 -0.000000 -0.000004 -0.000001 -0.000002 8.626451 12.699857 14.289122 -8.076276 -1.953369 39.415963 3.765146 23.725577 -1.768983 0.352456 7.443005 -6.751056 15.793619 -2.732184 -17.204787 -2.199547 -31.115794 7.357270 0.000001 0.000000 0.000001 2.381657 -3.649740 8.748064 -2.143232 -2.481390 18.936910 -0.000002 0.000004 -0.000000 -1.994888 -5.692811 14.073306 0.282852 -5.095985 27.403434 -0.000001 0.000000 -0.000002 -3.254446 -8.553804 12.136149 4.004173 -4.033828 33.628242 -0.000002 -0.000001 0.000001 -6.473247 -11.335224 23.824332 10.728617 -2.557639 35.386370 0.000003 0.000001 0.000005 -0.000000 0.000006 -0.000001 -0.000000 0.000004 -0.000002 -0.000000 0.000006 -0.000002 0.000000 0.000000 -0.000002 -0.000000 0.000001 -0.000002 0.000000 0.000000 -0.000002 -0.000000 0.000001 -0.000000 -0.000003 0.000001 -0.000001 -0.000003 0.000001 -0.000001 -0.000003 0.000001 -0.000001 -0.000003 0.000001 -0.000001 -0.000003 0.000001 -0.000001 -0.000003 0.000001 -0.000001 -0.000003 0.000001 -0.000001 0.000002 0.000001 -0.000001 0.000001 0.000000 0.000000 
-1.288301 51.470932 1.405235 30.169912 -21.127641 8.708637 0.000001 0.000000 0.000001 -107.461620 -18.921060 24.695872 130.224236 -0.717650 -2.633284 -43.091735 -0.409969 -16.503352 -0.000000 0.000000 -0.000000 0.000001 -0.000001 -0.000000 -110.934846 15.852372 -5.263858 133.712236 5.702155 -0.454445 -33.932588 -3.281345 9.210058 -0.000000 0.000000 0.000001 -0.000001 0.000003 -0.000000 12.568295 3.490683 -0.101873 7.159510 0.401316 -2.772471 7.080736 1.620769 3.981567 -0.388967 1.936513 -3.635738 -0.389002 1.936517 -3.635740 0.000000 0.000000 -0.000000 -0.389056 1.936529 -3.635739 -0.388866 1.936523 -3.635746 0.000003 0.000000 -0.000000 0.000000 0.000000 -0.000000 8.667177 -7.828701 14.928847 -86.158103 -12.364087 -32.614826 4.776893 -43.274313 7.982499 -58.789002 -1.338520 7.705966 17.551629 -5.699263 -12.932257 10.850456 26.127687 8.644831 0.000001 -0.000004 -0.000008 13.980941 1.201539 -55.004313 0.381504 1.169564 -65.441887 -0.000001 -0.000002 -0.000001 7.504710 1.174344 -63.778496 1.807954 1.478127 -64.568053 -0.000000 0.000001 -0.000003 8.574679 2.177933 -75.148951 -0.201026 0.998822 -57.855152 0.000001 -0.000001 0.000001 10.030106 13.637028 -84.750230 0.869813 0.055031 -64.595141 0.000000 -0.000001 -0.000003 -0.000001 -0.000001 -0.000000 -0.000001 -0.000001 -0.000000 -0.000002 -0.000001 -0.000000 -0.000003 0.000002 -0.000003 -0.000003 0.000001 -0.000003 -0.000003 0.000002 -0.000003 -0.000003 0.000002 -0.000004 8.631092 12.672391 14.291100 -6.921367 -0.998660 40.246497 3.733191 23.526976 -1.757605 0.341586 7.420926 -6.333025 15.793622 -2.732181 -17.204775 -2.199560 -31.115804 7.357263 0.000003 -0.000004 -0.000001 2.379549 -3.641475 9.024071 -2.136132 -2.477859 19.213580 -0.000000 -0.000002 0.000000 -1.992414 -5.700088 14.509280 0.283050 -5.098871 27.839424 0.000000 0.000000 -0.000000 -3.256542 -8.562002 12.522446 4.003182 -4.026365 34.015169 -0.000000 -0.000003 0.000005 -6.473448 -11.341247 24.416803 10.733073 -2.557616 35.979903 -0.000000 0.000002 -0.000001 0.000001 0.000000 0.000000 0.000001 -0.000000 0.000000 0.000002 0.000000 0.000002 0.000000 0.000001 0.000001 0.000000 0.000002 0.000001 0.000000 0.000001 0.000001 0.000000 0.000002 0.000001 -0.000000 0.000000 0.000000 -0.000000 0.000000 0.000000 -0.000000 0.000000 0.000000 -0.000000 0.000000 0.000000 -0.000000 0.000000 0.000000 -0.000000 0.000000 0.000000 -0.000000 0.000000 0.000000 0.000002 0.000001 -0.000000 0.000001 0.000000 0.000001 
-1.363686 51.449242 1.416679 30.215032 -20.917196 8.802743 0.000001 0.000001 -0.000000 -107.503954 -18.900887 24.693016 130.095925 -0.890003 -2.705014 -42.990928 -0.467633 -16.477859 0.000000 0.000000 0.000000 -0.000001 -0.000000 -0.000000 -111.272654 15.927190 -5.346078 133.907716 5.673915 -0.441903 -33.626022 -3.209806 9.103942 0.000000 0.000002 -0.000001 0.000006 0.000001 -0.000000 12.438398 3.484765 -0.160241 7.160387 0.390839 -2.841532 7.082036 1.610451 3.912769 -0.340827 2.060196 -3.709928 -0.340830 2.060204 -3.709935 -0.000001 -0.000000 -0.000000 -0.340769 2.060203 -3.709931 -0.340855 2.060181 -3.709923 0.000005 0.000000 -0.000000 -0.000001 -0.000000 -0.000000 8.662356 -7.827881 14.903128 -86.077561 -12.405718 -32.632530 4.694905 -43.245360 7.923042 -58.793073 -1.272859 7.724273 17.551633 -5.699259 -12.932253 10.850461 26.127687 8.644833 0.000001 -0.000003 -0.000001 13.980940 1.201539 -55.004313 0.381504 1.169563 -65.441893 -0.000000 -0.000004 0.000002 7.504710 1.174344 -63.778490 1.807954 1.478128 -64.568053 0.000000 0.000001 -0.000002 8.574680 2.177933 -75.148951 -0.201026 0.998821 -57.855152 -0.000001 -0.000001 0.000001 10.030109 13.637028 -84.750230 0.869815 0.055033 -64.595141 -0.000000 -0.000001 -0.000003 0.000001 0.000000 0.000000 0.000001 0.000000 0.000000 0.000000 0.000000 0.000000 -0.000001 0.000001 0.000001 -0.000001 0.000000 0.000000 -0.000001 0.000001 0.000001 -0.000001 -0.000000 0.000000 8.643954 12.621620 14.302453 -5.706273 0.058467 41.092160 3.786959 23.321614 -1.781040 0.330020 7.418311 -5.838576 15.793627 -2.732179 -17.204777 -2.199563 -31.115784 7.357260 0.000003 -0.000006 -0.000001 2.377857 -3.637480 9.313475 -2.128332 -2.475271 19.503651 -0.000001 0.000000 0.000000 -1.989733 -5.707708 14.966102 0.283302 -5.101797 28.296364 0.000000 0.000001 0.000001 -3.258591 -8.566333 12.927497 4.002183 -4.019149 34.420622 -0.000001 0.000003 -0.000002 -6.473594 -11.347391 25.037696 10.733149 -2.557697 36.601625 -0.000001 -0.000002 0.000000 -0.000001 0.000003 -0.000001 -0.000001 0.000003 -0.000001 -0.000000 0.000003 -0.000001 -0.000001 0.000002 0.000000 -0.000001 0.000003 -0.000000 -0.000001 0.000002 0.000000 -0.000001 0.000003 0.000000 -0.000001 -0.000000 0.000001 -0.000001 -0.000000 0.000001 -0.000001 -0.000000 0.000001 -0.000001 -0.000000 0.000001 -0.000001 -0.000000 0.000001 -0.000001 -0.000000 0.000001 -0.000001 -0.000000 0.000001 -0.000002 0.000000 0.000001 0.000001 0.000001 -0.000000 
